<svg width="36" height="36" viewBox="0 0 36 36" fill="none" xmlns="http://www.w3.org/2000/svg">
<rect width="36" height="36" rx="6" fill="#34A853"/>
<path d="M10.9998 27C10.4498 27 9.97916 26.8043 9.58782 26.413C9.19582 26.021 8.99982 25.55 8.99982 25V17.05C8.61649 16.7 8.32082 16.25 8.11282 15.7C7.90416 15.15 7.89982 14.55 8.09982 13.9L9.14982 10.5C9.28316 10.0667 9.52082 9.70833 9.86282 9.425C10.2042 9.14167 10.5998 9 11.0498 9H24.9498C25.3998 9 25.7915 9.13733 26.1248 9.412C26.4582 9.68733 26.6998 10.05 26.8498 10.5L27.8998 13.9C28.0998 14.55 28.0958 15.1417 27.8878 15.675C27.6792 16.2083 27.3832 16.6667 26.9998 17.05V25C26.9998 25.55 26.8042 26.021 26.4128 26.413C26.0208 26.8043 25.5498 27 24.9998 27H10.9998ZM20.1998 16C20.6498 16 20.9915 15.8457 21.2248 15.537C21.4582 15.229 21.5498 14.8833 21.4998 14.5L20.9498 11H18.9998V14.7C18.9998 15.05 19.1165 15.3543 19.3498 15.613C19.5832 15.871 19.8665 16 20.1998 16ZM15.6998 16C16.0832 16 16.3958 15.871 16.6378 15.613C16.8792 15.3543 16.9998 15.05 16.9998 14.7V11H15.0498L14.4998 14.5C14.4332 14.9 14.5208 15.25 14.7628 15.55C15.0042 15.85 15.3165 16 15.6998 16ZM11.2498 16C11.5498 16 11.8122 15.8917 12.0368 15.675C12.2622 15.4583 12.3998 15.1833 12.4498 14.85L12.9998 11H11.0498L10.0498 14.35C9.94982 14.6833 10.0038 15.0417 10.2118 15.425C10.4205 15.8083 10.7665 16 11.2498 16ZM24.7498 16C25.2332 16 25.5832 15.8083 25.7998 15.425C26.0165 15.0417 26.0665 14.6833 25.9498 14.35L24.8998 11H22.9998L23.5498 14.85C23.5998 15.1833 23.7375 15.4583 23.9628 15.675C24.1875 15.8917 24.4498 16 24.7498 16ZM10.9998 25H24.9998V17.95C24.9165 17.9833 24.8625 18 24.8378 18H24.7498C24.2998 18 23.9038 17.925 23.5618 17.775C23.2205 17.625 22.8832 17.3833 22.5498 17.05C22.2498 17.35 21.9082 17.5833 21.5248 17.75C21.1415 17.9167 20.7332 18 20.2998 18C19.8498 18 19.4288 17.9167 19.0368 17.75C18.6455 17.5833 18.2998 17.35 17.9998 17.05C17.7165 17.35 17.3875 17.5833 17.0128 17.75C16.6375 17.9167 16.2332 18 15.7998 18C15.3165 18 14.8788 17.9167 14.4868 17.75C14.0955 17.5833 13.7498 17.35 13.4498 17.05C13.0998 17.4 12.7542 17.6457 12.4128 17.787C12.0708 17.929 11.6832 18 11.2498 18H11.1378C11.0958 18 11.0498 17.9833 10.9998 17.95V25Z" fill="white"/>
</svg>
